<svg width="927" height="737" viewBox="0 0 927 737" fill="none" xmlns="http://www.w3.org/2000/svg">
<g id="campus-map">
<g id="Roads">
<path id="Road_16" d="M655.03 318.103L604.006 249.342L571.807 224.608L551.001 200.368" stroke="#9C9C9C" stroke-linecap="round" stroke-linejoin="round" stroke-dasharray="5 5"/>
<path id="Road_15" d="M841.786 131.113V119.24H741.225L732.803 131.113H725.373V142.49H679.303" stroke="#9C9C9C" stroke-linecap="round" stroke-linejoin="round" stroke-dasharray="5 5"/>
<path id="Road_14" d="M848.721 230.544L853.675 240.932L877.453 257.752" stroke="#9C9C9C" stroke-linecap="round" stroke-linejoin="round" stroke-dasharray="5 5"/>
<path id="Road_13" d="M107.64 6.94702L313.221 8.43107L467.778 10.9045L480.162 14.862L590.135 18.6865M679.303 21.7875L662.955 21.219M590.135 18.6865L602.52 35.144M590.135 18.6865L662.955 21.219M662.955 21.219L661.965 198.39" stroke="#9C9C9C" stroke-linecap="round" stroke-linejoin="round" stroke-dasharray="5 5"/>
<path id="Road_12" d="M385.05 420.008L437.56 380.928" stroke="#9C9C9C" stroke-linecap="round" stroke-linejoin="round" stroke-dasharray="5 5"/>
<path id="Road_11" d="M675.34 315.63L677.92 260.225M848.721 24.261L845.253 24.2104M677.92 260.225L679.303 230.544V223.124M677.92 260.225L738.748 291.807M755.095 300.294L769.956 266.656L771.443 230.544M755.095 300.294L760.049 315.63M755.095 300.294L738.748 291.807M735.28 230.544L738.748 291.807M738.748 291.807V314.146M679.303 223.124V131.607V21.7876L845.253 24.2104M679.303 223.124L845.253 224.113V24.2104" stroke="#9C9C9C" stroke-linecap="round" stroke-linejoin="round" stroke-dasharray="5 5"/>
<path id="Road_10" d="M182.442 87.0857L432.111 93.5166M432.111 93.5166L465.301 136.751M432.111 93.5166L439.541 98.027M432.111 93.5166V86.5911M426.662 164.751L445.093 151.395M465.301 136.751L482.639 124.187L465.301 113.663M465.301 136.751L445.093 151.395M465.301 113.663L463.522 174.15M465.301 113.663L439.541 98.027M462.329 214.714L463.522 174.15M462.329 214.714H420.222M462.329 214.714L475.208 218.672L503.445 199.379M426.662 123.198L445.093 151.395M445.093 151.395L463.522 174.15M463.522 174.15L482.639 191.464M439.541 98.027L481.648 100.937" stroke="#9C9C9C" stroke-linecap="round" stroke-linejoin="round" stroke-dasharray="5 5"/>
<path id="Road_9" d="M118.043 2.9895V141.006M118.043 299.305L106.649 310.683M118.043 299.305L231.484 303.757M118.043 299.305V141.006M118.043 141.006C132.261 157.097 138.02 168.469 141.326 182.065" stroke="#9C9C9C" stroke-linecap="round" stroke-linejoin="round" stroke-dasharray="5 5"/>
<path id="Road_8" d="M364.74 213.23L343.439 229.555C340.467 231.533 338.98 233.017 338.98 235.985V255.278" stroke="#9C9C9C" stroke-linecap="round" stroke-linejoin="round" stroke-dasharray="5 5"/>
<path id="Road_7" d="M381.087 279.518L342.943 316.124" stroke="#9C9C9C" stroke-linecap="round" stroke-linejoin="round" stroke-dasharray="5 5"/>
<path id="Road_6" d="M305.295 346.3C298.669 364.763 293.063 375.47 284.551 386.369M261.702 344.816L260.711 368.561L251.794 378.454V396.263L261.702 411.598C271.524 401.394 278.72 393.837 284.551 386.369M284.551 386.369L276.068 378.949H263.683L256.748 372.024L207.706 363.614" stroke="#9C9C9C" stroke-linecap="round" stroke-linejoin="round" stroke-dasharray="5 5"/>
<path id="Road_5" d="M543.57 364.603V333.933H558.927V364.603" stroke="#9C9C9C" stroke-linecap="round" stroke-linejoin="round" stroke-dasharray="5 5"/>
<path id="Road_4" d="M105.164 318.103L255.262 321.566V335.912H319.661V323.545H665.928" stroke="#9C9C9C" stroke-linecap="round" stroke-linejoin="round" stroke-dasharray="5 5"/>
<path id="Road_3" d="M785.313 473.434C805.924 495.819 815.333 510.273 827.42 540.216" stroke="#9C9C9C" stroke-linecap="round" stroke-linejoin="round" stroke-dasharray="5 5"/>
<path id="Road_2" d="M208.201 543.184C218.17 537.68 225.426 533.197 230.988 528.135M254.766 465.024C247.579 501.912 243.729 516.541 230.988 528.135M230.988 528.135C249.85 527.286 260.235 527.555 278.049 530.817" stroke="#9C9C9C" stroke-linecap="round" stroke-linejoin="round" stroke-dasharray="5 5"/>
<path id="Road_1" d="M501.958 510.535V510.035C501.846 510.035 501.736 510.073 501.648 510.143L501.958 510.535ZM555.459 510.535L555.572 510.048C555.535 510.039 555.497 510.035 555.459 510.035V510.535ZM598.061 491.737L598.023 491.238C597.944 491.244 597.868 491.269 597.8 491.31L598.061 491.737ZM665.432 470.96L665.93 470.913C665.914 470.747 665.817 470.6 665.67 470.521C665.524 470.441 665.347 470.44 665.199 470.518L665.432 470.96ZM671.377 534.28L671.869 534.365C671.877 534.322 671.878 534.277 671.874 534.233L671.377 534.28ZM669.395 545.657L669.811 545.934C669.85 545.877 669.876 545.811 669.888 545.743L669.395 545.657ZM555.086 590.835C554.902 591.041 554.92 591.357 555.126 591.541C555.331 591.725 555.648 591.707 555.832 591.502L555.086 590.835ZM555.858 517.16C555.692 516.939 555.379 516.895 555.158 517.061C554.938 517.227 554.893 517.54 555.059 517.761L555.858 517.16ZM604.006 586.221L604.221 585.77L604.006 586.221ZM720.086 683.058C720.292 683.242 720.608 683.224 720.792 683.018C720.976 682.812 720.958 682.496 720.752 682.312L720.086 683.058ZM670.946 536.753L670.453 536.667L670.946 536.753ZM680.293 537.248L680.464 536.778C680.418 536.761 680.369 536.751 680.32 536.749L680.293 537.248ZM697.136 545.657L697.472 545.287C697.452 545.269 697.431 545.253 697.408 545.238L697.136 545.657ZM713.598 563.296C713.778 563.506 714.093 563.531 714.303 563.352C714.513 563.172 714.538 562.857 714.359 562.647L713.598 563.296ZM475.333 532.26C475.549 532.089 475.586 531.774 475.414 531.558C475.243 531.341 474.928 531.305 474.712 531.476L475.333 532.26ZM478.303 528.632C478.087 528.803 478.05 529.118 478.222 529.334C478.393 529.551 478.708 529.587 478.924 529.416L478.303 528.632ZM482.516 526.571C482.732 526.4 482.769 526.085 482.597 525.869C482.426 525.652 482.111 525.616 481.895 525.787L482.516 526.571ZM485.486 522.943C485.27 523.114 485.233 523.429 485.405 523.645C485.576 523.862 485.891 523.898 486.107 523.727L485.486 522.943ZM489.699 520.882C489.915 520.711 489.952 520.396 489.78 520.18C489.609 519.963 489.294 519.927 489.078 520.098L489.699 520.882ZM492.669 517.254C492.453 517.425 492.416 517.74 492.588 517.956C492.759 518.173 493.074 518.209 493.29 518.038L492.669 517.254ZM496.882 515.194C497.098 515.022 497.135 514.708 496.963 514.491C496.792 514.275 496.477 514.238 496.261 514.41L496.882 515.194ZM499.852 511.565C499.636 511.737 499.599 512.051 499.771 512.268C499.942 512.484 500.257 512.521 500.473 512.349L499.852 511.565ZM504.633 511.035C504.909 511.035 505.133 510.811 505.133 510.535C505.133 510.259 504.909 510.035 504.633 510.035V511.035ZM509.983 510.035C509.707 510.035 509.483 510.259 509.483 510.535C509.483 510.811 509.707 511.035 509.983 511.035V510.035ZM515.333 511.035C515.61 511.035 515.833 510.811 515.833 510.535C515.833 510.259 515.61 510.035 515.333 510.035V511.035ZM520.683 510.035C520.407 510.035 520.183 510.259 520.183 510.535C520.183 510.811 520.407 511.035 520.683 511.035V510.035ZM526.034 511.035C526.31 511.035 526.534 510.811 526.534 510.535C526.534 510.259 526.31 510.035 526.034 510.035V511.035ZM531.384 510.035C531.107 510.035 530.884 510.259 530.884 510.535C530.884 510.811 531.107 511.035 531.384 511.035V510.035ZM536.734 511.035C537.01 511.035 537.234 510.811 537.234 510.535C537.234 510.259 537.01 510.035 536.734 510.035V511.035ZM542.084 510.035C541.808 510.035 541.584 510.259 541.584 510.535C541.584 510.811 541.808 511.035 542.084 511.035V510.035ZM547.434 511.035C547.71 511.035 547.934 510.811 547.934 510.535C547.934 510.259 547.71 510.035 547.434 510.035V511.035ZM552.784 510.035C552.508 510.035 552.284 510.259 552.284 510.535C552.284 510.811 552.508 511.035 552.784 511.035V510.035ZM557.787 511.33C558.063 511.338 558.293 511.121 558.301 510.845C558.309 510.569 558.092 510.339 557.816 510.331L557.787 511.33ZM562.367 509.787C562.099 509.851 561.933 510.121 561.998 510.39C562.063 510.658 562.333 510.824 562.601 510.759L562.367 509.787ZM567.173 509.296C567.43 509.196 567.558 508.906 567.459 508.649C567.359 508.391 567.069 508.263 566.812 508.363L567.173 509.296ZM571.116 506.501C570.867 506.619 570.76 506.917 570.877 507.167C570.995 507.416 571.293 507.523 571.543 507.406L571.116 506.501ZM575.796 505.283C576.041 505.155 576.135 504.853 576.007 504.608C575.879 504.364 575.577 504.269 575.332 504.397L575.796 505.283ZM579.483 502.152C579.242 502.286 579.155 502.591 579.289 502.832C579.424 503.074 579.728 503.16 579.969 503.026L579.483 502.152ZM584.095 500.683C584.334 500.544 584.416 500.238 584.278 499.999C584.14 499.76 583.834 499.679 583.595 499.817L584.095 500.683ZM587.675 497.426C587.437 497.567 587.359 497.873 587.5 498.111C587.64 498.348 587.947 498.427 588.185 498.286L587.675 497.426ZM592.247 495.855C592.484 495.713 592.56 495.405 592.418 495.169C592.275 494.933 591.968 494.856 591.731 494.999L592.247 495.855ZM595.778 492.545C595.542 492.689 595.468 492.996 595.611 493.232C595.755 493.468 596.063 493.543 596.299 493.399L595.778 492.545ZM600.606 492.04C600.881 492.018 601.087 491.777 601.065 491.502C601.043 491.226 600.802 491.021 600.527 491.043L600.606 492.04ZM605.52 490.625C605.245 490.649 605.042 490.892 605.066 491.167C605.09 491.442 605.333 491.646 605.608 491.621L605.52 490.625ZM610.61 491.143C610.885 491.115 611.084 490.869 611.056 490.594C611.027 490.32 610.781 490.12 610.507 490.149L610.61 491.143ZM615.477 489.579C615.203 489.614 615.01 489.864 615.044 490.138C615.079 490.412 615.33 490.606 615.604 490.571L615.477 489.579ZM620.583 489.856C620.856 489.812 621.041 489.555 620.997 489.282C620.953 489.01 620.696 488.825 620.423 488.869L620.583 489.856ZM625.332 487.963C625.061 488.02 624.888 488.285 624.945 488.555C625.001 488.825 625.266 488.998 625.537 488.942L625.332 487.963ZM630.442 487.769C630.709 487.697 630.866 487.423 630.794 487.156C630.722 486.889 630.448 486.732 630.181 486.804L630.442 487.769ZM634.945 485.349C634.684 485.439 634.544 485.723 634.634 485.984C634.723 486.246 635.007 486.385 635.268 486.296L634.945 485.349ZM639.989 484.508C640.244 484.402 640.365 484.11 640.258 483.855C640.152 483.6 639.86 483.479 639.605 483.585L639.989 484.508ZM644.146 481.533C643.898 481.654 643.794 481.953 643.915 482.202C644.036 482.45 644.335 482.553 644.584 482.432L644.146 481.533ZM649.193 480.06C649.438 479.931 649.532 479.629 649.403 479.385C649.275 479.14 648.973 479.046 648.728 479.175L649.193 480.06ZM653.434 476.701C653.19 476.83 653.096 477.132 653.224 477.376C653.353 477.621 653.655 477.715 653.899 477.586L653.434 476.701ZM658.606 475.113C658.85 474.984 658.944 474.682 658.816 474.438C658.687 474.193 658.385 474.099 658.14 474.228L658.606 475.113ZM662.846 471.754C662.602 471.883 662.508 472.185 662.636 472.43C662.765 472.674 663.067 472.768 663.312 472.64L662.846 471.754ZM665.182 473.645C665.208 473.92 665.452 474.122 665.726 474.096C666.001 474.071 666.203 473.827 666.178 473.552L665.182 473.645ZM666.673 478.828C666.647 478.553 666.403 478.352 666.128 478.377C665.853 478.403 665.651 478.647 665.677 478.922L666.673 478.828ZM666.173 484.199C666.198 484.473 666.442 484.675 666.717 484.65C666.992 484.624 667.194 484.38 667.168 484.105L666.173 484.199ZM667.664 489.382C667.638 489.107 667.394 488.905 667.119 488.931C666.844 488.956 666.642 489.2 666.668 489.475L667.664 489.382ZM667.163 494.752C667.189 495.027 667.433 495.229 667.708 495.203C667.983 495.177 668.185 494.933 668.159 494.658L667.163 494.752ZM668.654 499.935C668.629 499.66 668.385 499.458 668.11 499.484C667.835 499.51 667.633 499.753 667.659 500.028L668.654 499.935ZM668.154 505.305C668.18 505.58 668.424 505.782 668.699 505.756C668.974 505.73 669.176 505.486 669.15 505.212L668.154 505.305ZM669.645 510.488C669.619 510.213 669.376 510.011 669.101 510.037C668.826 510.063 668.624 510.307 668.65 510.582L669.645 510.488ZM669.145 515.858C669.171 516.133 669.415 516.335 669.689 516.309C669.964 516.284 670.166 516.04 670.141 515.765L669.145 515.858ZM670.636 521.041C670.61 520.766 670.366 520.565 670.091 520.59C669.816 520.616 669.614 520.86 669.64 521.135L670.636 521.041ZM670.136 526.412C670.161 526.686 670.405 526.888 670.68 526.863C670.955 526.837 671.157 526.593 671.131 526.318L670.136 526.412ZM671.627 531.595C671.601 531.32 671.357 531.118 671.082 531.144C670.807 531.169 670.605 531.413 670.631 531.688L671.627 531.595ZM670.776 534.812C670.729 535.084 670.911 535.343 671.183 535.391C671.455 535.438 671.714 535.256 671.761 534.984L670.776 534.812ZM671.546 536.221C671.593 535.949 671.411 535.69 671.139 535.642C670.867 535.595 670.608 535.777 670.561 536.049L671.546 536.221ZM586.195 556.929C586.374 556.719 586.35 556.404 586.141 556.224C585.931 556.044 585.615 556.068 585.435 556.278L586.195 556.929ZM588.672 552.492C588.493 552.702 588.518 553.018 588.728 553.197C588.938 553.376 589.254 553.351 589.433 553.14L588.672 552.492ZM592.657 549.343C592.835 549.132 592.809 548.816 592.598 548.638C592.387 548.46 592.072 548.486 591.894 548.697L592.657 549.343ZM595.103 544.889C594.925 545.1 594.953 545.416 595.164 545.593C595.376 545.771 595.691 545.744 595.869 545.532L595.103 544.889ZM599.066 541.71C599.243 541.498 599.214 541.182 599.002 541.005C598.79 540.829 598.475 540.857 598.298 541.069L599.066 541.71ZM601.479 537.238C601.303 537.451 601.332 537.766 601.545 537.942C601.758 538.118 602.073 538.089 602.249 537.876L601.479 537.238ZM605.418 534.029C605.593 533.816 605.562 533.501 605.349 533.326C605.135 533.151 604.82 533.182 604.645 533.395L605.418 534.029ZM607.796 529.54C607.622 529.754 607.654 530.069 607.868 530.244C608.082 530.418 608.397 530.386 608.572 530.172L607.796 529.54ZM611.711 526.303C611.885 526.088 611.851 525.773 611.637 525.599C611.422 525.426 611.107 525.459 610.934 525.674L611.711 526.303ZM614.058 521.795C613.885 522.01 613.92 522.325 614.135 522.498C614.351 522.67 614.665 522.636 614.838 522.421L614.058 521.795ZM617.95 518.53C618.122 518.314 618.086 518 617.87 517.828C617.654 517.656 617.34 517.691 617.168 517.907L617.95 518.53ZM620.265 514.009C620.094 514.225 620.13 514.54 620.347 514.711C620.563 514.883 620.878 514.846 621.049 514.63L620.265 514.009ZM624.139 510.716C624.31 510.499 624.273 510.185 624.056 510.014C623.839 509.843 623.524 509.88 623.354 510.097L624.139 510.716ZM626.426 506.184C626.256 506.401 626.294 506.715 626.511 506.886C626.729 507.056 627.043 507.018 627.213 506.8L626.426 506.184ZM630.282 502.87C630.451 502.653 630.412 502.338 630.195 502.169C629.977 501.999 629.663 502.038 629.493 502.256L630.282 502.87ZM632.547 498.326C632.377 498.544 632.417 498.858 632.635 499.027C632.854 499.197 633.168 499.157 633.337 498.939L632.547 498.326ZM636.388 494.995C636.557 494.776 636.516 494.462 636.298 494.294C636.079 494.125 635.765 494.165 635.596 494.384L636.388 494.995ZM638.633 490.442C638.465 490.661 638.506 490.975 638.725 491.143C638.944 491.312 639.258 491.271 639.426 491.052L638.633 490.442ZM642.464 487.095C642.632 486.876 642.591 486.562 642.371 486.394C642.152 486.226 641.838 486.267 641.67 486.487L642.464 487.095ZM644.694 482.536C644.526 482.755 644.568 483.069 644.788 483.237C645.007 483.405 645.321 483.363 645.488 483.143L644.694 482.536ZM633.03 601.268C633.183 601.038 633.12 600.728 632.89 600.575C632.66 600.422 632.35 600.485 632.197 600.715L633.03 601.268ZM634.922 596.616C634.769 596.846 634.831 597.156 635.061 597.309C635.291 597.462 635.602 597.399 635.754 597.169L634.922 596.616ZM638.479 593.071C638.632 592.841 638.569 592.53 638.339 592.377C638.109 592.224 637.799 592.287 637.646 592.517L638.479 593.071ZM640.371 588.418C640.218 588.648 640.28 588.958 640.51 589.111C640.74 589.264 641.051 589.202 641.204 588.972L640.371 588.418ZM643.928 584.873C644.081 584.643 644.018 584.333 643.788 584.18C643.559 584.027 643.248 584.089 643.095 584.319L643.928 584.873ZM645.82 580.221C645.667 580.45 645.729 580.761 645.959 580.914C646.189 581.067 646.5 581.004 646.653 580.774L645.82 580.221ZM649.377 576.675C649.53 576.445 649.468 576.135 649.238 575.982C649.008 575.829 648.697 575.892 648.544 576.122L649.377 576.675ZM651.269 572.023C651.116 572.253 651.179 572.563 651.409 572.716C651.639 572.869 651.949 572.806 652.102 572.576L651.269 572.023ZM654.826 568.478C654.979 568.248 654.917 567.937 654.687 567.784C654.457 567.632 654.146 567.694 653.994 567.924L654.826 568.478ZM656.718 563.825C656.565 564.055 656.628 564.366 656.858 564.518C657.088 564.671 657.398 564.609 657.551 564.379L656.718 563.825ZM660.275 560.28C660.428 560.05 660.366 559.74 660.136 559.587C659.906 559.434 659.596 559.496 659.443 559.726L660.275 560.28ZM662.167 555.628C662.014 555.858 662.077 556.168 662.307 556.321C662.537 556.474 662.847 556.411 663 556.181L662.167 555.628ZM665.725 552.082C665.877 551.852 665.815 551.542 665.585 551.389C665.355 551.236 665.045 551.299 664.892 551.529L665.725 552.082ZM667.616 547.43C667.463 547.66 667.526 547.97 667.756 548.123C667.986 548.276 668.296 548.214 668.449 547.984L667.616 547.43ZM670.275 543.517C670.323 543.245 670.141 542.986 669.868 542.939C669.596 542.891 669.338 543.074 669.29 543.346L670.275 543.517ZM670.065 538.893C670.018 539.165 670.2 539.424 670.472 539.472C670.744 539.519 671.003 539.337 671.051 539.065L670.065 538.893ZM585.083 561.259C585.218 561.5 585.523 561.585 585.764 561.45C586.005 561.315 586.09 561.01 585.955 560.77L585.083 561.259ZM588.879 565.641C588.732 565.408 588.423 565.338 588.19 565.485C587.956 565.632 587.886 565.941 588.034 566.175L588.879 565.641ZM591.163 570.964C591.318 571.193 591.628 571.254 591.857 571.099C592.086 570.945 592.147 570.634 591.992 570.405L591.163 570.964ZM595.241 575.082C595.08 574.858 594.768 574.806 594.543 574.967C594.318 575.127 594.267 575.44 594.427 575.664L595.241 575.082ZM597.837 580.264C598.006 580.482 598.32 580.523 598.539 580.354C598.757 580.185 598.798 579.871 598.629 579.652L597.837 580.264ZM602.24 584.006C602.052 583.804 601.736 583.792 601.534 583.98C601.331 584.168 601.319 584.484 601.507 584.686L602.24 584.006ZM606.035 588.003C606.271 588.146 606.578 588.07 606.721 587.834C606.864 587.597 606.788 587.29 606.551 587.147L606.035 588.003ZM611.118 589.926C610.882 589.781 610.575 589.856 610.43 590.091C610.286 590.327 610.361 590.635 610.596 590.779L611.118 589.926ZM615.145 593.57C615.38 593.715 615.688 593.642 615.833 593.407C615.978 593.172 615.905 592.864 615.669 592.719L615.145 593.57ZM620.213 595.525C619.978 595.38 619.67 595.452 619.525 595.687C619.379 595.921 619.452 596.23 619.686 596.375L620.213 595.525ZM624.217 599.193C624.451 599.339 624.759 599.268 624.905 599.034C625.052 598.799 624.981 598.491 624.746 598.345L624.217 599.193ZM629.272 601.189C629.039 601.041 628.73 601.11 628.583 601.344C628.435 601.577 628.504 601.886 628.738 602.034L629.272 601.189ZM632.776 605.073C632.982 605.257 633.298 605.239 633.482 605.033C633.666 604.827 633.648 604.511 633.442 604.327L632.776 605.073ZM637.157 607.646C636.951 607.462 636.635 607.479 636.451 607.685C636.267 607.891 636.285 608.207 636.491 608.391L637.157 607.646ZM640.206 611.71C640.412 611.894 640.728 611.876 640.912 611.67C641.096 611.464 641.078 611.148 640.873 610.964L640.206 611.71ZM644.588 614.283C644.382 614.099 644.066 614.116 643.882 614.322C643.698 614.528 643.716 614.844 643.922 615.028L644.588 614.283ZM647.637 618.347C647.843 618.531 648.159 618.513 648.343 618.307C648.527 618.101 648.509 617.785 648.303 617.601L647.637 618.347ZM652.018 620.92C651.812 620.736 651.496 620.753 651.312 620.959C651.129 621.165 651.146 621.481 651.352 621.665L652.018 620.92ZM655.068 624.984C655.274 625.168 655.59 625.15 655.774 624.944C655.958 624.738 655.94 624.422 655.734 624.238L655.068 624.984ZM659.449 627.557C659.243 627.373 658.927 627.39 658.743 627.596C658.559 627.802 658.577 628.118 658.783 628.302L659.449 627.557ZM662.498 631.621C662.704 631.805 663.02 631.787 663.204 631.581C663.388 631.375 663.37 631.059 663.164 630.875L662.498 631.621ZM666.88 634.194C666.674 634.01 666.358 634.027 666.174 634.233C665.99 634.439 666.008 634.755 666.214 634.939L666.88 634.194ZM669.929 638.258C670.135 638.442 670.451 638.424 670.635 638.218C670.819 638.012 670.801 637.696 670.595 637.512L669.929 638.258ZM674.31 640.831C674.104 640.647 673.788 640.664 673.604 640.87C673.42 641.076 673.438 641.392 673.644 641.576L674.31 640.831ZM677.359 644.895C677.565 645.079 677.882 645.061 678.065 644.855C678.249 644.649 678.232 644.333 678.026 644.149L677.359 644.895ZM681.741 647.468C681.535 647.284 681.219 647.301 681.035 647.507C680.851 647.713 680.869 648.029 681.075 648.213L681.741 647.468ZM684.79 651.532C684.996 651.716 685.312 651.698 685.496 651.492C685.68 651.286 685.662 650.97 685.456 650.786L684.79 651.532ZM689.172 654.105C688.966 653.921 688.65 653.938 688.466 654.144C688.282 654.35 688.299 654.666 688.505 654.85L689.172 654.105ZM692.221 658.169C692.427 658.353 692.743 658.335 692.927 658.129C693.111 657.923 693.093 657.607 692.887 657.423L692.221 658.169ZM696.602 660.742C696.396 660.558 696.08 660.576 695.896 660.781C695.712 660.987 695.73 661.303 695.936 661.487L696.602 660.742ZM699.651 664.806C699.857 664.99 700.173 664.972 700.357 664.766C700.541 664.56 700.523 664.244 700.318 664.06L699.651 664.806ZM704.033 667.379C703.827 667.195 703.511 667.213 703.327 667.418C703.143 667.624 703.161 667.94 703.367 668.124L704.033 667.379ZM707.082 671.443C707.288 671.627 707.604 671.609 707.788 671.403C707.972 671.197 707.954 670.881 707.748 670.697L707.082 671.443ZM711.463 674.016C711.258 673.832 710.941 673.85 710.757 674.055C710.574 674.261 710.591 674.577 710.797 674.761L711.463 674.016ZM714.513 678.08C714.719 678.264 715.035 678.246 715.219 678.04C715.403 677.834 715.385 677.518 715.179 677.334L714.513 678.08ZM718.894 680.653C718.688 680.469 718.372 680.487 718.188 680.692C718.004 680.898 718.022 681.215 718.228 681.398L718.894 680.653ZM557.644 589.472C557.828 589.266 557.81 588.95 557.604 588.766C557.398 588.583 557.082 588.601 556.898 588.807L557.644 589.472ZM560.516 584.746C560.332 584.953 560.351 585.269 560.557 585.452C560.764 585.636 561.08 585.617 561.263 585.411L560.516 584.746ZM564.875 581.344C565.058 581.137 565.039 580.821 564.832 580.638C564.626 580.455 564.31 580.474 564.126 580.68L564.875 581.344ZM567.729 576.607C567.546 576.814 567.566 577.13 567.773 577.313C567.98 577.496 568.296 577.476 568.479 577.269L567.729 576.607ZM572.074 573.186C572.256 572.979 572.235 572.663 572.028 572.481C571.82 572.299 571.504 572.319 571.322 572.526L572.074 573.186ZM574.906 568.437C574.724 568.645 574.745 568.96 574.953 569.142C575.161 569.324 575.477 569.303 575.659 569.095L574.906 568.437ZM579.233 564.993C579.414 564.785 579.392 564.469 579.183 564.288C578.975 564.107 578.659 564.129 578.478 564.337L579.233 564.993ZM582.037 560.227C581.857 560.436 581.88 560.752 582.089 560.933C582.298 561.113 582.614 561.09 582.794 560.881L582.037 560.227ZM556.566 519.768C556.732 519.989 557.045 520.034 557.266 519.868C557.487 519.702 557.532 519.389 557.366 519.168L556.566 519.768ZM560.365 523.183C560.2 522.962 559.887 522.916 559.665 523.08C559.443 523.245 559.397 523.558 559.562 523.78L560.365 523.183ZM562.537 527.805C562.7 528.028 563.013 528.076 563.236 527.912C563.458 527.749 563.506 527.436 563.343 527.213L562.537 527.805ZM566.295 531.267C566.133 531.043 565.82 530.992 565.596 531.154C565.373 531.316 565.322 531.628 565.484 531.852L566.295 531.267ZM568.395 535.923C568.554 536.149 568.866 536.202 569.092 536.043C569.317 535.883 569.37 535.571 569.211 535.346L568.395 535.923ZM572.088 539.452C571.93 539.225 571.619 539.169 571.392 539.326C571.165 539.484 571.108 539.795 571.266 540.022L572.088 539.452ZM574.097 544.149C574.253 544.377 574.564 544.437 574.792 544.282C575.02 544.126 575.08 543.815 574.925 543.587L574.097 544.149ZM577.727 547.747C577.573 547.518 577.263 547.456 577.033 547.609C576.803 547.763 576.742 548.073 576.895 548.303L577.727 547.747ZM579.662 552.476C579.814 552.706 580.124 552.77 580.354 552.618C580.585 552.466 580.649 552.156 580.497 551.926L579.662 552.476ZM583.241 556.116C583.09 555.885 582.781 555.819 582.549 555.97C582.318 556.121 582.252 556.431 582.403 556.662L583.241 556.116ZM673.256 537.376C673.532 537.391 673.767 537.179 673.782 536.903C673.797 536.627 673.585 536.392 673.309 536.377L673.256 537.376ZM677.983 536.625C677.707 536.61 677.472 536.822 677.457 537.098C677.443 537.373 677.654 537.609 677.93 537.623L677.983 536.625ZM682.327 538.54C682.585 538.639 682.874 538.51 682.973 538.252C683.072 537.994 682.943 537.705 682.685 537.606L682.327 538.54ZM687.07 539.424C686.819 539.31 686.522 539.421 686.409 539.673C686.295 539.925 686.406 540.221 686.658 540.335L687.07 539.424ZM690.842 542.427C691.084 542.56 691.388 542.471 691.521 542.229C691.654 541.987 691.566 541.683 691.324 541.55L690.842 542.427ZM695.41 543.964C695.176 543.818 694.867 543.889 694.721 544.123C694.575 544.357 694.646 544.665 694.88 544.812L695.41 543.964ZM699.027 548.067C699.229 548.255 699.546 548.242 699.733 548.04C699.921 547.837 699.908 547.521 699.705 547.333L699.027 548.067ZM704.097 551.505C703.9 551.312 703.583 551.314 703.39 551.511C703.196 551.708 703.199 552.025 703.396 552.218L704.097 551.505ZM707.598 556.529C707.787 556.731 708.103 556.742 708.305 556.554C708.507 556.365 708.518 556.049 708.329 555.847L707.598 556.529ZM712.381 560.352C712.2 560.144 711.884 560.122 711.676 560.304C711.468 560.485 711.446 560.801 711.627 561.009L712.381 560.352ZM473.537 533.682L475.333 532.26L474.712 531.476L472.916 532.898L473.537 533.682ZM478.924 529.416L482.516 526.571L481.895 525.787L478.303 528.632L478.924 529.416ZM486.107 523.727L489.699 520.882L489.078 520.098L485.486 522.943L486.107 523.727ZM493.29 518.038L496.882 515.194L496.261 514.41L492.669 517.254L493.29 518.038ZM500.473 512.349L502.269 510.927L501.648 510.143L499.852 511.565L500.473 512.349ZM501.958 511.035H504.633V510.035H501.958V511.035ZM509.983 511.035H515.333V510.035H509.983V511.035ZM520.683 511.035H526.034V510.035H520.683V511.035ZM531.384 511.035H536.734V510.035H531.384V511.035ZM542.084 511.035H547.434V510.035H542.084V511.035ZM552.784 511.035H555.459V510.035H552.784V511.035ZM555.345 511.022C556.123 511.203 556.934 511.306 557.787 511.33L557.816 510.331C557.026 510.308 556.281 510.213 555.572 510.048L555.345 511.022ZM562.601 510.759C564.01 510.421 565.526 509.933 567.173 509.296L566.812 508.363C565.197 508.988 563.723 509.461 562.367 509.787L562.601 510.759ZM571.543 507.406C572.88 506.775 574.295 506.068 575.796 505.283L575.332 504.397C573.842 505.177 572.439 505.878 571.116 506.501L571.543 507.406ZM579.969 503.026C581.285 502.294 582.658 501.513 584.095 500.683L583.595 499.817C582.162 500.645 580.793 501.424 579.483 502.152L579.969 503.026ZM588.185 498.286C589.491 497.511 590.844 496.701 592.247 495.855L591.731 494.999C590.33 495.844 588.978 496.653 587.675 497.426L588.185 498.286ZM596.299 493.399C596.963 492.994 597.637 492.582 598.322 492.163L597.8 491.31C597.116 491.729 596.442 492.141 595.778 492.545L596.299 493.399ZM598.099 492.235C598.95 492.17 599.785 492.105 600.606 492.04L600.527 491.043C599.707 491.108 598.873 491.173 598.023 491.238L598.099 492.235ZM605.608 491.621C607.339 491.468 609.004 491.31 610.61 491.143L610.507 490.149C608.907 490.315 607.247 490.472 605.52 490.625L605.608 491.621ZM615.604 490.571C617.324 490.352 618.979 490.116 620.583 489.856L620.423 488.869C618.832 489.126 617.188 489.361 615.477 489.579L615.604 490.571ZM625.537 488.942C627.211 488.591 628.84 488.203 630.442 487.769L630.181 486.804C628.599 487.232 626.989 487.616 625.332 487.963L625.537 488.942ZM635.268 486.296C636.845 485.757 638.412 485.165 639.989 484.508L639.605 483.585C638.048 484.233 636.501 484.818 634.945 485.349L635.268 486.296ZM644.584 482.432C645.329 482.069 646.08 481.692 646.838 481.298L646.377 480.41C645.626 480.8 644.883 481.174 644.146 481.533L644.584 482.432ZM646.84 481.296L649.193 480.06L648.728 479.175L646.375 480.411L646.84 481.296ZM653.899 477.586L658.606 475.113L658.14 474.228L653.434 476.701L653.899 477.586ZM663.312 472.64L665.665 471.403L665.199 470.518L662.846 471.754L663.312 472.64ZM664.934 471.007L665.182 473.645L666.178 473.552L665.93 470.913L664.934 471.007ZM665.677 478.922L666.173 484.199L667.168 484.105L666.673 478.828L665.677 478.922ZM666.668 489.475L667.163 494.752L668.159 494.658L667.664 489.382L666.668 489.475ZM667.659 500.028L668.154 505.305L669.15 505.212L668.654 499.935L667.659 500.028ZM668.65 510.582L669.145 515.858L670.141 515.765L669.645 510.488L668.65 510.582ZM669.64 521.135L670.136 526.412L671.131 526.318L670.636 521.041L669.64 521.135ZM670.631 531.688L670.879 534.326L671.874 534.233L671.627 531.595L670.631 531.688ZM670.884 534.194L670.776 534.812L671.761 534.984L671.869 534.365L670.884 534.194ZM670.561 536.049L670.453 536.667L671.438 536.839L671.546 536.221L670.561 536.049ZM584.57 558.821C585.114 558.188 585.656 557.557 586.195 556.929L585.435 556.278C584.897 556.906 584.356 557.536 583.812 558.168L584.57 558.821ZM589.433 553.14C590.516 551.869 591.59 550.603 592.657 549.343L591.894 548.697C590.828 549.957 589.754 551.221 588.672 552.492L589.433 553.14ZM595.869 545.532C596.94 544.256 598.005 542.983 599.066 541.71L598.298 541.069C597.238 542.342 596.173 543.614 595.103 544.889L595.869 545.532ZM602.249 537.876C603.308 536.596 604.363 535.315 605.418 534.029L604.645 533.395C603.591 534.679 602.536 535.96 601.479 537.238L602.249 537.876ZM608.572 530.172C609.617 528.889 610.663 527.599 611.711 526.303L610.934 525.674C609.886 526.97 608.841 528.258 607.796 529.54L608.572 530.172ZM614.838 522.421C615.871 521.134 616.908 519.838 617.95 518.53L617.168 517.907C616.126 519.214 615.09 520.509 614.058 521.795L614.838 522.421ZM621.049 514.63C622.072 513.338 623.102 512.034 624.139 510.716L623.354 510.097C622.316 511.415 621.287 512.718 620.265 514.009L621.049 514.63ZM627.213 506.8C628.227 505.505 629.249 504.196 630.282 502.87L629.493 502.256C628.461 503.581 627.439 504.89 626.426 506.184L627.213 506.8ZM633.337 498.939C634.343 497.641 635.36 496.326 636.388 494.995L635.596 494.384C634.569 495.715 633.552 497.029 632.547 498.326L633.337 498.939ZM639.426 491.052C640.427 489.75 641.439 488.432 642.464 487.095L641.67 486.487C640.646 487.823 639.634 489.141 638.633 490.442L639.426 491.052ZM645.488 483.143C645.991 482.486 646.497 481.824 647.005 481.157L646.21 480.551C645.702 481.217 645.196 481.879 644.694 482.536L645.488 483.143ZM631.668 603.318L633.03 601.268L632.197 600.715L630.835 602.764L631.668 603.318ZM635.754 597.169L638.479 593.071L637.646 592.517L634.922 596.616L635.754 597.169ZM641.204 588.972L643.928 584.873L643.095 584.319L640.371 588.418L641.204 588.972ZM646.653 580.774L649.377 576.675L648.544 576.122L645.82 580.221L646.653 580.774ZM652.102 572.576L654.826 568.478L653.994 567.924L651.269 572.023L652.102 572.576ZM657.551 564.379L660.275 560.28L659.443 559.726L656.718 563.825L657.551 564.379ZM663 556.181L665.725 552.082L664.892 551.529L662.167 555.628L663 556.181ZM668.449 547.984L669.811 545.934L668.979 545.381L667.616 547.43L668.449 547.984ZM669.888 545.743L670.275 543.517L669.29 543.346L668.902 545.572L669.888 545.743ZM671.051 539.065L671.438 536.839L670.453 536.667L670.065 538.893L671.051 539.065ZM583.74 558.712C584.104 559.465 584.558 560.324 585.083 561.259L585.955 560.77C585.437 559.846 584.993 559.007 584.641 558.277L583.74 558.712ZM588.034 566.175C589.01 567.722 590.069 569.342 591.163 570.964L591.992 570.405C590.904 568.791 589.85 567.179 588.879 565.641L588.034 566.175ZM594.427 575.664C595.596 577.297 596.751 578.858 597.837 580.264L598.629 579.652C597.551 578.258 596.403 576.707 595.241 575.082L594.427 575.664ZM601.507 584.686C601.968 585.184 602.392 585.607 602.767 585.939C603.135 586.265 603.483 586.526 603.79 586.673L604.221 585.77C604.042 585.685 603.778 585.498 603.429 585.19C603.088 584.888 602.688 584.49 602.24 584.006L601.507 584.686ZM603.79 586.673C603.79 586.672 603.791 586.673 603.794 586.675C603.797 586.676 603.801 586.678 603.807 586.681C603.817 586.687 603.832 586.695 603.849 586.704C603.885 586.724 603.932 586.751 603.99 586.784C604.106 586.851 604.263 586.943 604.457 587.058C604.845 587.288 605.38 587.608 606.035 588.003L606.551 587.147C605.896 586.751 605.358 586.429 604.966 586.197C604.588 585.973 604.319 585.817 604.221 585.77L603.79 586.673ZM610.596 590.779C611.996 591.635 613.537 592.58 615.145 593.57L615.669 592.719C614.06 591.728 612.519 590.782 611.118 589.926L610.596 590.779ZM619.686 596.375C621.214 597.322 622.743 598.272 624.217 599.193L624.746 598.345C623.272 597.423 621.742 596.472 620.213 595.525L619.686 596.375ZM628.738 602.034C629.534 602.538 630.286 603.016 630.981 603.462L631.521 602.62C630.824 602.173 630.07 601.694 629.272 601.189L628.738 602.034ZM630.918 603.414L632.776 605.073L633.442 604.327L631.584 602.668L630.918 603.414ZM636.491 608.391L640.206 611.71L640.873 610.964L637.157 607.646L636.491 608.391ZM643.922 615.028L647.637 618.347L648.303 617.601L644.588 614.283L643.922 615.028ZM651.352 621.665L655.068 624.984L655.734 624.238L652.018 620.92L651.352 621.665ZM658.783 628.302L662.498 631.621L663.164 630.875L659.449 627.557L658.783 628.302ZM666.214 634.939L669.929 638.258L670.595 637.512L666.88 634.194L666.214 634.939ZM673.644 641.576L677.359 644.895L678.026 644.149L674.31 640.831L673.644 641.576ZM681.075 648.213L684.79 651.532L685.456 650.786L681.741 647.468L681.075 648.213ZM688.505 654.85L692.221 658.169L692.887 657.423L689.172 654.105L688.505 654.85ZM695.936 661.487L699.651 664.806L700.318 664.06L696.602 660.742L695.936 661.487ZM703.367 668.124L707.082 671.443L707.748 670.697L704.033 667.379L703.367 668.124ZM710.797 674.761L714.513 678.08L715.179 677.334L711.463 674.016L710.797 674.761ZM718.228 681.398L720.086 683.058L720.752 682.312L718.894 680.653L718.228 681.398ZM555.832 591.502C556.44 590.821 557.044 590.144 557.644 589.472L556.898 588.807C556.298 589.478 555.695 590.154 555.086 590.835L555.832 591.502ZM561.263 585.411C562.485 584.037 563.689 582.682 564.875 581.344L564.126 580.68C562.941 582.018 561.738 583.373 560.516 584.746L561.263 585.411ZM568.479 577.269C569.694 575.892 570.892 574.531 572.074 573.186L571.322 572.526C570.141 573.871 568.944 575.231 567.729 576.607L568.479 577.269ZM575.659 569.095C576.866 567.713 578.056 566.347 579.233 564.993L578.478 564.337C577.302 565.69 576.112 567.056 574.906 568.437L575.659 569.095ZM582.794 560.881C583.389 560.191 583.981 559.505 584.57 558.821L583.812 558.168C583.223 558.852 582.632 559.538 582.037 560.227L582.794 560.881ZM555.059 517.761C555.571 518.442 556.073 519.111 556.566 519.768L557.366 519.168C556.873 518.511 556.371 517.842 555.858 517.16L555.059 517.761ZM559.562 523.78C560.587 525.158 561.574 526.495 562.537 527.805L563.343 527.213C562.379 525.901 561.39 524.563 560.365 523.183L559.562 523.78ZM565.484 531.852C566.466 533.213 567.432 534.563 568.395 535.923L569.211 535.346C568.246 533.983 567.279 532.63 566.295 531.267L565.484 531.852ZM571.266 540.022C572.196 541.365 573.137 542.735 574.097 544.149L574.925 543.587C573.962 542.17 573.02 540.798 572.088 539.452L571.266 540.022ZM576.895 548.303C577.79 549.642 578.709 551.029 579.662 552.476L580.497 551.926C579.543 550.477 578.622 549.089 577.727 547.747L576.895 548.303ZM582.403 556.662C582.851 557.35 583.307 558.051 583.771 558.767L584.61 558.223C584.145 557.506 583.689 556.804 583.241 556.116L582.403 556.662ZM670.919 537.252L673.256 537.376L673.309 536.377L670.972 536.254L670.919 537.252ZM677.93 537.623L680.267 537.747L680.32 536.749L677.983 536.625L677.93 537.623ZM680.122 537.718C680.896 537.999 681.628 538.272 682.327 538.54L682.685 537.606C681.98 537.336 681.242 537.061 680.464 536.778L680.122 537.718ZM686.658 540.335C688.106 540.99 689.462 541.668 690.842 542.427L691.324 541.55C689.921 540.78 688.542 540.089 687.07 539.424L686.658 540.335ZM694.88 544.812C695.515 545.209 696.174 545.63 696.864 546.077L697.408 545.238C696.714 544.788 696.051 544.365 695.41 543.964L694.88 544.812ZM696.8 546.027C697.58 546.737 698.32 547.414 699.027 548.067L699.705 547.333C698.996 546.678 698.255 545.999 697.472 545.287L696.8 546.027ZM703.396 552.218C704.843 553.64 706.206 555.037 707.598 556.529L708.329 555.847C706.927 554.344 705.554 552.937 704.097 551.505L703.396 552.218ZM711.627 561.009C712.259 561.734 712.913 562.493 713.598 563.296L714.359 562.647C713.672 561.842 713.015 561.08 712.381 560.352L711.627 561.009Z" fill="#9C9C9C"/>
</g>
<path id="Road" d="M666.424 365.098C666.424 365.098 449.945 365.098 444.991 365.098C440.037 365.098 437.561 368.561 437.561 373.507C437.561 378.454 437.561 420.008 437.561 420.008M666.424 365.098V470.465M666.424 365.098V319.092M436.57 522.902L409.82 529.333C409.82 529.333 289.939 529.333 285.481 529.333C281.022 529.333 277.059 529.827 277.059 534.774C277.059 539.721 277.059 578.306 277.059 578.306M436.57 522.902L447.963 530.322C447.963 530.322 464.806 530.322 468.274 530.322C471.741 530.322 473.723 531.311 473.723 534.774C473.723 538.237 473.723 578.306 473.723 578.306M436.57 522.902V467.003M277.059 578.306H473.723M277.059 578.306L263.684 591.168M473.723 578.306L495.024 605.514H503.445M666.424 470.465L555.46 468.779M666.424 470.465L777.883 473.103M436.57 467.003L437.561 420.008M436.57 467.003L541.094 468.561M437.561 420.008H323.624L308.268 411.598M308.268 411.598C308.268 411.598 265.17 411.598 261.207 411.598C257.244 411.598 254.767 413.082 254.767 418.029C254.767 422.976 254.767 465.024 254.767 465.024M308.268 411.598L308.949 346.3M309.259 316.619L308.949 346.3M309.259 316.619L341.953 316.845M309.259 316.619L230.494 314.71M105.164 311.672C105.164 311.672 104.669 351.247 106.65 387.358C108.631 423.47 130.428 470.139 163.618 502.62C196.808 535.101 263.684 591.168 263.684 591.168M105.164 311.672L230.494 314.71M105.164 311.672L105.499 241.922M263.684 591.168C340.732 657.249 441.028 714.344 478.181 716.818C515.334 719.291 555.46 713.355 555.46 713.355M308.949 346.3L259.721 344.816L230.494 336.406M541.094 468.561C541.094 468.561 541.094 478.38 541.094 483.327C541.094 488.274 539.112 490.253 534.159 490.253C529.205 490.253 499.482 490.253 499.482 490.253M541.094 468.561L555.46 468.779M555.46 468.779V713.355M555.46 713.355L603.016 711.376L618.372 703.956L634.72 687.631L646.113 682.19L706.054 683.14M875.472 475.412L854.666 508.061L838.319 525.375L770.895 615.902M875.472 475.412L777.883 473.103M875.472 475.412C887.345 476.272 889.838 473.928 895.287 471.619L926 458.098M777.883 473.103V502.125L771.939 519.439L751.133 551.099M770.895 615.902L720.42 683.674L708.531 683.179M770.895 615.902L714.97 563.466M708.531 683.179L711.998 721.765M708.531 683.179L706.054 683.14M640.169 617.881L665.433 642.635M665.433 642.635L698.128 602.546M665.433 642.635L706.054 683.14M711.998 721.765C723.412 717.128 729.316 713.539 740.73 708.903L756.582 691.094M711.998 721.765L696.146 725.227L630.757 726.711M666.424 319.092L668.405 230.544M666.424 319.092L550.011 318.286M666.424 319.092H732.309L745.188 316.124L870.023 318.286C875.967 318.286 877.637 316.124 877.637 310.683V189.98H848.722M341.953 316.845L339.972 281.267M341.953 316.845L550.011 318.286M230.494 314.71L236.352 278.528M236.352 278.528C236.352 278.528 237.924 267.15 238.915 262.698C239.906 258.246 241.392 256.762 245.85 256.762C250.309 256.762 338.486 256.762 338.486 256.762L339.972 281.267M236.352 278.528L339.972 281.267M671.377 7.9362L671.014 35.1438M671.377 7.9362H848.722V75.2132M671.377 7.9362L470.751 5.82729M668.405 230.544L668.835 198.389M668.405 230.544H848.722V189.98M550.011 318.286V198.389M550.011 198.389H491.556C485.612 198.389 484.126 196.411 484.126 190.969V125.176H591.622C596.08 125.176 598.557 127.65 598.557 131.112V198.389M550.011 198.389H598.557M668.835 198.389H598.557M668.835 198.389L669.733 131.112M106.206 94.5058L105.795 180.086M106.206 94.5058L106.543 24.2608M106.206 94.5058L385.051 98.4844M105.795 180.086L165.6 185.033L187.396 190.969L340.467 205.315L370.685 213.725H416.755C420.718 213.725 425.176 210.262 425.176 205.315V105.884C425.176 100.937 423.195 98.958 418.241 98.958L385.051 98.4844M105.795 180.086L105.499 241.922M671.014 35.1438H605.988C601.53 35.1438 600.043 37.1225 600.043 41.08V104.4C600.043 108.852 602.025 111.325 606.979 111.325H669.997M671.014 35.1438L669.997 111.325M669.997 111.325L669.733 131.112M106.543 24.2608L106.65 2L180.956 2.78108M106.543 24.2608H155.692C159.655 24.2608 162.132 27.2289 162.132 30.6917V77.6866M848.722 189.98V131.112M180.956 2.78108L313.717 4.17661M180.956 2.78108L180.618 19.8086M313.717 4.17661L470.751 5.82729M313.717 4.17661V19.8086M180.618 19.8086L179.47 73.2344C179.47 77.1919 181.947 79.1706 185.415 79.1706L306.782 81.6441C311.735 81.6441 312.726 79.6653 312.726 75.7079L313.717 19.8086M180.618 19.8086H313.717M462.825 22.7767V80.6547C462.825 84.1175 462.329 85.6015 458.862 85.6015L341.953 83.1281C337.495 83.1281 334.523 80.6547 334.523 75.7079L335.513 21.7873M462.825 22.7767L335.513 21.7873M462.825 22.7767L470.751 5.82729M335.513 21.7873L313.717 19.8086M105.499 241.922L174.021 246.374M385.051 98.4844V148.426M669.733 131.112H739.244M848.722 75.2132H737.758C734.29 75.2132 732.804 76.6972 732.804 80.16V94.0112M848.722 75.2132V131.112M848.722 131.112H806.119C799.68 131.112 796.707 133.586 796.707 139.027V171.676C796.707 175.139 796.707 176.623 793.24 176.623H765.003M732.804 94.0112H758.068C762.526 94.0112 764.013 95.9899 764.013 99.9474V119.735M732.804 94.0112V150.405M732.804 150.405V171.676C732.804 175.139 733.795 176.623 737.758 176.623H765.003M732.804 150.405H759.059C763.022 150.405 765.003 151.889 765.003 156.341V176.623" stroke="#D3D3D3" stroke-width="3"/>
<g id="Buildings MF">
<path id="Vector 46" d="M25.0912 88.7957H0V113.852H7.63646V142.721H25.0912V88.7957Z" fill="#429C97"/>
<path id="Vector 45" d="M74.183 100.234H43.6372V147.079H74.183V100.234Z" fill="#429C97"/>
<path id="Vector 27" d="M420.405 432.769H416.442V446.126H426.349V400.615H451.614V394.679H420.405V432.769Z" fill="#429C97"/>
<path id="Vector 11" d="M636.624 657.356L629.452 667.438L639.951 674.887L647.124 664.805L636.624 657.356Z" fill="#429C97"/>
<path id="Vector 1" d="M520.966 459.977V403.583H473.905V459.977H451.613V389.732H446.66V379.343H469.942V382.312H516.012V379.343H532.855V375.386H576.448V379.343H592.3V382.312H637.379V379.343H661.157V392.7H656.699V453.546H631.93V403.583H587.346V459.977H520.966Z" fill="#429C97"/>
<path id="Vector 51" d="M681.826 330.098H672.553V337.724H681.826V330.098Z" fill="#429C97"/>
<path id="Vector 52" d="M706.917 376.397H696.007V389.47H706.917V376.397Z" fill="#429C97"/>
<path id="Vector 2" d="M311.423 418.918H289.626V427.822H261.39V457.503H289.626V523.791H311.423V457.503H334.21V463.439H360.465V457.503H373.344V463.439H399.599V457.503H416.442V427.822H311.423V418.918Z" fill="#429C97"/>
<path id="Vector 3" d="M196 331.359H127.638V390.721H196V404.572H187.579V421.392H238.602V403.088H248.51V398.636H246.033V372.418H238.602V373.902H196V331.359Z" fill="#429C97"/>
<path id="Vector 4" d="M317.367 540.61H291.607V564.85H426.349V574.744H434.275V564.85H460.035L461.521 566.334H465.979V539.126H460.035V540.61H447.155V539.126H440.715V540.61H386.719V538.137H376.317V540.61H327.274V538.137H317.367V540.61Z" fill="#429C97"/>
<path id="Vector 5" d="M493.72 492.626H471.924V512.908H493.72V492.626Z" fill="#429C97"/>
<path id="Vector 6" d="M543.753 517.36H505.114V528.243H510.068V548.03H503.132V553.472H510.068V557.924H504.618V582.164H511.554V597.004H507.591V628.169H511.554V710.781H523.443V704.351H543.753V517.36Z" fill="#429C97"/>
<path id="Vector 7" d="M683.672 541.6L645.801 594.832L661.954 606.292L656.503 613.954L667.81 621.976L673.261 614.314L675.684 616.033L694.333 589.82L725.025 611.595L739.083 591.835L705.969 568.341L709.412 563.502L688.412 548.604L690.134 546.184L683.672 541.6Z" fill="#429C97"/>
<path id="Vector 8" d="M629.429 618.771L620.535 631.272L666.168 663.647L675.062 651.146L629.429 618.771Z" fill="#429C97"/>
<path id="Vector 9" d="M702.284 613.665L684.783 638.265L697.302 647.146L714.803 622.547L702.284 613.665Z" fill="#429C97"/>
<path id="Vector 10" d="M736.629 600.409L710.234 637.51L721.137 645.246L747.533 608.145L736.629 600.409Z" fill="#429C97"/>
<path id="Vector 12" d="M877.362 486.195L839.491 539.427L858.875 553.179L896.746 499.947L877.362 486.195Z" fill="#429C97"/>
<path id="Vector 13" d="M819.244 590.079L787.972 634.035L801.702 643.776L832.975 599.82L819.244 590.079Z" fill="#429C97"/>
<path id="Vector 14" d="M773.689 676.154L762.212 692.285L771.097 698.588L782.573 682.457L773.689 676.154Z" fill="#429C97"/>
<path id="Vector 15" d="M568.025 715.729H541.275V735.516H568.025V733.537H614.095V719.191H568.025V715.729Z" fill="#429C97"/>
<path id="Vector 16" d="M704.253 687.037H643.817V703.362H704.253V687.037Z" fill="#429C97"/>
<path id="Vector 17" d="M677.999 727.106H663.633V737H677.999V727.106Z" fill="#429C97"/>
<path id="Vector 19" d="M141.508 178.502V133.981H156.865V100.342H177.175V145.358H164.296V178.502H141.508Z" fill="#429C97"/>
<path id="Vector 20" d="M220.273 188.396V143.874H235.63V110.236H255.94V155.252H243.061V188.396H220.273Z" fill="#429C97"/>
<path id="Vector 21" d="M377.803 207.193V162.672H393.159V129.033H413.47V174.05H400.59V207.193H377.803Z" fill="#429C97"/>
<path id="Vector 22" d="M298.543 198.289V153.768H313.9V120.129H334.21V165.145H321.33V198.289H298.543Z" fill="#429C97"/>
<path id="Vector 23" d="M512.049 137.938H488.271V185.427H594.777V137.938H571.494V163.661H512.049V137.938Z" fill="#429C97"/>
<path id="Vector 24" d="M785.99 516.866L774.596 532.696L778.064 535.664L758.249 562.871L738.929 549.02L716.637 542.095L713.665 549.02L773.11 604.425L818.685 539.621L785.99 516.866Z" fill="#429C97"/>
<path id="Vector 25" d="M744.378 522.802L716.637 513.403L710.693 532.201L715.151 534.18V537.642L738.434 544.568L744.378 522.802Z" fill="#429C97"/>
<path id="Vector 26" d="M762.707 662.303L751.809 679.122L762.707 687.037L774.596 669.228L762.707 662.303Z" fill="#429C97"/>
<path id="Vector 28" d="M304.487 523.791H298.543V540.61H304.487V523.791Z" fill="#429C97"/>
<path id="Vector 29" d="M235.63 135.464H177.176V145.358H175.689V151.789H220.273V143.874H235.63V135.464Z" fill="#429C97"/>
<path id="Vector 30" d="M313.899 144.369H255.94V160.199H298.543V153.768H313.899V144.369Z" fill="#429C97"/>
<path id="Vector 31" d="M393.16 153.768H334.21V169.598H377.803V162.672H393.16V153.768Z" fill="#429C97"/>
<path id="Vector 32" d="M800.851 242.316H775.092V278.923H769.643V304.647H804.814V278.923H800.851V242.316Z" fill="#429C97"/>
<path id="Vector 33" d="M492.188 87.7063H482.37V116.031H492.188V87.7063Z" fill="#429C97"/>
<path id="Vector 50" d="M889.101 337.724H874.374V357.878H889.101V337.724Z" fill="#429C97"/>
</g>
<g id="Buildings City">
<path id="Vector 37" d="M505.426 42.5642H497.5V60.3728H503.445V70.7612H558.927V60.3728H562.89V42.5642H553.478V50.4791H505.426V42.5642Z" fill="#429C97"/>
<path id="Vector 39" d="M295.883 24.7556H190.368V74.7187H215.632V50.4792H272.105V74.7187H295.883V24.7556Z" fill="#D3D3D3"/>
<path id="Vector 40" d="M456.384 29.2078H350.87V79.1708H376.134V54.9313H432.606V79.1708H456.384V29.2078Z" fill="#D3D3D3"/>
<path id="Vector 41" d="M684.257 117.262V32.6707H840.795V56.9102H726.364V117.262H684.257Z" fill="#D3D3D3"/>
<path id="Vector 42" d="M684.752 219.166V151.889H716.456V185.033H816.522V133.586H840.3V219.166H684.752Z" fill="#D3D3D3"/>
<path id="Vector 38" d="M658.993 89.0646V41.575H623.326V89.0646H658.993Z" fill="#D3D3D3"/>
<path id="Vector 43" d="M739.243 145.459V129.134H752.123V124.682H769.956V129.134H776.892V141.006H765.993V145.459H739.243Z" fill="#D3D3D3"/>
<path id="Vector 44" d="M661.47 234.007H655.525V249.837H661.47V234.007Z" fill="#D3D3D3"/>
</g>
</g>
</svg>
