<svg width="16" height="16" viewBox="0 0 16 16" fill="none" xmlns="http://www.w3.org/2000/svg">
<g clip-path="url(#clip0_569_29373)">
<path d="M9.46582 8.0131L15.696 1.78281C16.1014 1.37755 16.1014 0.722281 15.696 0.317069C15.2907 -0.0881928 14.6355 -0.0881928 14.2303 0.317069L7.99993 6.54731L1.76984 0.317069C1.36438 -0.0881928 0.709353 -0.0881928 0.304092 0.317069C-0.101364 0.72233 -0.101364 1.37755 0.304092 1.78281L6.53413 8.0131L0.30414 14.2433C-0.101315 14.6486 -0.101315 15.3039 0.30414 15.7091C0.40027 15.8055 0.514502 15.8819 0.640272 15.9341C0.766042 15.9862 0.900871 16.0129 1.03701 16.0128C1.30233 16.0128 1.56774 15.9112 1.76988 15.7091L7.99993 9.47884L14.2303 15.7091C14.3264 15.8055 14.4406 15.8819 14.5664 15.934C14.6922 15.9862 14.827 16.0129 14.9631 16.0128C15.2284 16.0128 15.4939 15.9112 15.696 15.7091C16.1014 15.3038 16.1014 14.6486 15.696 14.2433L9.46582 8.0131Z" fill="#429C97"/>
</g>
<defs>
<clipPath id="clip0_569_29373">
<rect width="16" height="16" fill="white"/>
</clipPath>
</defs>
</svg>
