<svg width="21" height="20" viewBox="0 0 21 20" fill="none" xmlns="http://www.w3.org/2000/svg">
<path fill-rule="evenodd" clip-rule="evenodd" d="M15.4867 13.6581C16.8059 11.9566 17.4277 9.81627 17.2255 7.67244C17.0232 5.52862 16.0122 3.5424 14.398 2.11786C12.7839 0.693311 10.6878 -0.0625465 8.53638 0.00405526C6.38492 0.070657 4.33963 0.954715 2.81661 2.47638C1.29226 3.99909 0.405661 6.04599 0.337495 8.19994C0.269328 10.3539 1.02472 12.4528 2.44974 14.0689C3.87475 15.6851 5.86214 16.6968 8.00691 16.8979C10.1517 17.0991 12.2924 16.4745 13.9929 15.1515L14.0384 15.1991L18.5262 19.6898C18.6245 19.7882 18.7412 19.8662 18.8696 19.9194C18.998 19.9726 19.1357 20 19.2747 20C19.4137 20 19.5514 19.9726 19.6798 19.9194C19.8082 19.8662 19.9249 19.7882 20.0232 19.6898C20.1215 19.5915 20.1995 19.4748 20.2527 19.3463C20.3059 19.2178 20.3333 19.0801 20.3333 18.941C20.3333 18.802 20.3059 18.6643 20.2527 18.5358C20.1995 18.4073 20.1215 18.2906 20.0232 18.1922L15.5343 13.7026C15.5188 13.6873 15.503 13.6725 15.4867 13.6581ZM13.2904 3.97398C13.8877 4.56189 14.3628 5.26229 14.6881 6.03479C15.0135 6.80728 15.1828 7.63659 15.1862 8.47486C15.1896 9.31313 15.0271 10.1438 14.708 10.9189C14.3889 11.694 13.9196 12.3983 13.3271 12.991C12.7346 13.5838 12.0306 14.0533 11.2558 14.3725C10.481 14.6918 9.65064 14.8543 8.8127 14.8509C7.97476 14.8475 7.14579 14.6782 6.3736 14.3526C5.60141 14.0271 4.90129 13.5519 4.31361 12.9543C3.1392 11.7601 2.48404 10.1501 2.49086 8.47486C2.49768 6.79964 3.16592 5.19497 4.35002 4.0104C5.53412 2.82583 7.13814 2.15732 8.8127 2.1505C10.4873 2.14368 12.0967 2.7991 13.2904 3.97398Z" fill="#429C97"/>
</svg>
