<svg width="20" height="20" viewBox="0 0 20 20" fill="none" xmlns="http://www.w3.org/2000/svg">
<path d="M19.2861 5.08746e-08C19.1752 -4.18011e-05 19.0657 0.025739 18.9665 0.0753336L13.5536 2.78244L7.43289 0.0617736C7.42289 0.0575047 7.41147 0.0567513 7.40075 0.0524824C7.37321 0.0421868 7.34505 0.0336072 7.31646 0.0267853C7.28804 0.0191264 7.25916 0.0131416 7.23003 0.00891452C7.17203 0.0041434 7.11372 0.0041434 7.05576 0.00891452C7.02663 0.0131416 6.99775 0.0191264 6.96933 0.0267853C6.94075 0.0336072 6.91258 0.0421868 6.88504 0.0524824C6.87433 0.0567513 6.8629 0.0574628 6.8529 0.0617736L0.424304 2.91888C0.166239 3.03347 -4.18449e-05 3.28936 7.89889e-09 3.57169V19.2857C0.000125566 19.5274 0.122378 19.7526 0.324987 19.8843C0.527639 20.0162 0.783234 20.0366 1.00426 19.9386L7.14285 17.21L13.2815 19.9386C13.2922 19.9428 13.3036 19.9386 13.3143 19.945C13.4872 20.0224 13.6857 20.0179 13.855 19.9329C13.8664 19.9279 13.8793 19.9329 13.8907 19.925L19.605 17.0679C19.8472 16.9469 20.0001 16.6994 20 16.4286V0.714622C20.0002 0.320126 19.6806 0.000167459 19.2861 5.08746e-08ZM6.42859 15.9643L1.42856 18.1864V4.03599L6.42859 1.81386V15.9643ZM12.8572 18.1864L7.85716 15.9643V1.81386L12.8572 4.03595V18.1864ZM18.5715 15.9872L14.2858 18.13V4.0131L18.5715 1.87028V15.9872Z" fill="#429C97"/>
</svg>
