<svg width="21" height="20" viewBox="0 0 21 20" fill="none" xmlns="http://www.w3.org/2000/svg">
<g clip-path="url(#clip0_363_2372)">
<path d="M5.95234 4.1075L4.774 2.92917C4.449 2.60375 3.92067 2.60375 3.59567 2.92917C3.27025 3.25458 3.27025 3.78208 3.59567 4.1075L4.774 5.28583C4.85124 5.3634 4.94306 5.42491 5.04418 5.46681C5.1453 5.50872 5.25371 5.5302 5.36317 5.53C5.5765 5.53 5.78984 5.44875 5.95234 5.28583C6.27775 4.96042 6.27775 4.43292 5.95234 4.1075ZM3.1665 9.16667H1.49984C1.03984 9.16667 0.666504 9.54 0.666504 10C0.666504 10.46 1.03984 10.8333 1.49984 10.8333H3.1665C3.6265 10.8333 3.99984 10.46 3.99984 10C3.99984 9.54 3.6265 9.16667 3.1665 9.16667ZM5.95234 14.7142C5.62734 14.3887 5.099 14.3887 4.774 14.7142L3.59567 15.8925C3.27025 16.2179 3.27025 16.7454 3.59567 17.0708C3.75817 17.2337 3.9715 17.315 4.18484 17.315C4.39817 17.315 4.6115 17.2337 4.774 17.0708L5.95234 15.8925C6.27775 15.5671 6.27775 15.0396 5.95234 14.7142ZM10.6665 16.6667C10.2065 16.6667 9.83317 17.04 9.83317 17.5V19.1667C9.83317 19.6267 10.2065 20 10.6665 20C11.1265 20 11.4998 19.6267 11.4998 19.1667V17.5C11.4998 17.04 11.1265 16.6667 10.6665 16.6667ZM17.7373 15.8925L16.559 14.7142C16.234 14.3887 15.7057 14.3887 15.3807 14.7142C15.0553 15.0396 15.0553 15.5671 15.3807 15.8925L16.559 17.0708C16.7215 17.2337 16.9348 17.315 17.1482 17.315C17.3615 17.315 17.5748 17.2337 17.7373 17.0708C18.0628 16.7454 18.0628 16.2179 17.7373 15.8925ZM19.8332 9.16667H18.1665C17.7065 9.16667 17.3332 9.54 17.3332 10C17.3332 10.46 17.7065 10.8333 18.1665 10.8333H19.8332C20.2932 10.8333 20.6665 10.46 20.6665 10C20.6665 9.54 20.2932 9.16667 19.8332 9.16667ZM17.7373 2.92917C17.4123 2.60375 16.884 2.60375 16.559 2.92917L15.3807 4.1075C15.0553 4.43292 15.0553 4.96042 15.3807 5.28583C15.5432 5.44875 15.7565 5.53 15.9698 5.53C16.1832 5.53 16.3965 5.44875 16.559 5.28583L17.7373 4.1075C18.0628 3.78208 18.0628 3.25458 17.7373 2.92917ZM10.6665 0C10.2065 0 9.83317 0.373333 9.83317 0.833333V2.5C9.83317 2.96 10.2065 3.33333 10.6665 3.33333C11.1265 3.33333 11.4998 2.96 11.4998 2.5V0.833333C11.4998 0.373333 11.1265 0 10.6665 0ZM10.6665 4.58333C7.67984 4.58333 5.24984 7.01333 5.24984 10C5.24984 12.9867 7.67984 15.4167 10.6665 15.4167C13.6532 15.4167 16.0832 12.9867 16.0832 10C16.0832 7.01333 13.6532 4.58333 10.6665 4.58333ZM10.6665 13.75C8.599 13.75 6.9165 12.0675 6.9165 10C6.9165 7.9325 8.599 6.25 10.6665 6.25C12.734 6.25 14.4165 7.9325 14.4165 10C14.4165 12.0675 12.734 13.75 10.6665 13.75Z" fill="#429C97"/>
</g>
<defs>
<clipPath id="clip0_363_2372">
<rect width="20" height="20" fill="white" transform="translate(0.666504)"/>
</clipPath>
</defs>
</svg>
